<svg xmlns="http://www.w3.org/2000/svg" xmlns:xlink="http://www.w3.org/1999/xlink" preserveAspectRatio="xMidYMid" width="59" height="19" viewBox="0 0 59 19">
  <defs>
    <style>

      .cls-2 {
        fill: #ff8a00;
      }
    </style>
  </defs>
  <path d="M56.918,15.330 C56.918,15.330 58.670,15.162 58.670,15.162 C58.670,15.738 58.334,16.818 58.022,17.322 C57.206,17.658 55.310,17.994 54.326,17.994 C53.870,17.562 53.222,16.362 53.222,15.786 C53.534,14.130 54.110,10.769 54.110,9.521 C54.110,8.633 53.798,8.033 53.030,8.033 C52.141,8.033 51.277,9.017 50.797,9.785 C50.797,9.785 49.957,17.490 49.957,17.490 C49.429,17.586 48.661,17.658 47.917,17.658 C47.341,17.658 46.789,17.610 46.381,17.490 C46.381,17.490 48.397,2.585 48.397,2.585 C48.397,2.585 46.765,2.753 46.765,2.753 C46.765,2.297 47.053,0.977 47.389,0.664 C48.133,0.232 49.333,-0.008 50.437,-0.008 C50.845,-0.008 51.445,0.088 51.877,0.208 C51.877,0.208 51.517,3.665 51.517,3.665 C51.397,4.889 51.085,6.281 50.701,7.553 C50.701,7.553 51.061,7.553 51.061,7.553 C51.733,6.497 52.742,5.585 54.446,5.585 C56.006,5.585 57.566,6.377 57.566,8.897 C57.566,10.265 57.086,13.098 56.822,14.922 C56.822,15.042 56.894,15.282 56.918,15.330 ZM41.821,8.369 C41.821,8.369 41.293,13.578 41.293,13.578 C41.173,14.658 41.389,15.210 42.493,15.210 C43.190,15.210 43.910,15.042 44.726,14.778 C44.726,15.474 44.390,16.650 43.934,17.250 C42.877,17.754 41.797,17.994 40.909,17.994 C38.653,17.994 37.717,16.842 37.717,14.946 C37.717,13.746 38.173,10.601 38.581,8.369 C38.581,8.369 36.733,8.369 36.733,8.369 C36.829,7.625 37.165,6.665 37.429,6.209 C37.837,6.017 38.389,5.825 38.869,5.729 C38.869,5.729 39.613,3.185 39.613,3.185 C40.213,2.873 41.653,2.561 42.541,2.561 C42.541,2.561 42.133,5.993 42.133,5.993 C42.133,5.993 45.374,5.993 45.374,5.993 C45.422,6.257 45.422,6.473 45.422,6.737 C45.422,7.289 45.374,7.913 45.278,8.369 C45.278,8.369 41.821,8.369 41.821,8.369 ZM36.110,15.162 C36.110,15.738 35.774,16.818 35.462,17.322 C34.646,17.658 32.749,17.994 31.765,17.994 C31.453,17.442 31.213,16.602 31.141,16.050 C31.141,16.050 30.925,16.050 30.925,16.050 C30.301,17.178 29.197,17.994 27.637,17.994 C25.741,17.994 24.277,16.650 24.277,13.434 C24.277,11.513 24.877,9.545 26.053,8.033 C27.205,6.569 28.957,5.585 31.285,5.585 C32.869,5.585 34.334,6.185 35.294,6.833 C35.294,6.833 34.334,14.922 34.334,14.922 C34.334,15.042 34.406,15.282 34.430,15.330 C34.430,15.330 36.110,15.162 36.110,15.162 ZM31.045,7.745 C30.133,7.745 29.245,8.417 28.717,9.209 C28.045,10.217 27.757,11.969 27.757,13.194 C27.757,14.874 28.213,15.450 28.957,15.450 C29.677,15.450 30.325,15.066 30.925,14.274 C30.925,14.274 31.861,7.841 31.861,7.841 C31.621,7.769 31.261,7.745 31.045,7.745 ZM16.693,12.978 C16.693,12.978 16.693,13.290 16.693,13.290 C16.693,14.730 17.245,15.210 18.301,15.210 C19.645,15.210 21.445,14.754 22.549,14.178 C22.549,14.850 22.213,15.954 21.853,16.578 C20.941,17.274 19.429,17.994 17.581,17.994 C14.653,17.994 13.260,16.410 13.260,13.458 C13.260,11.489 13.860,9.209 15.061,7.697 C16.117,6.401 17.629,5.585 19.621,5.585 C21.997,5.585 23.317,6.737 23.317,8.681 C23.317,10.601 21.997,12.618 16.693,12.978 ZM19.165,7.721 C18.493,7.721 17.869,8.249 17.485,8.921 C17.173,9.425 16.981,10.265 16.909,10.817 C19.645,10.625 20.005,9.641 20.005,8.801 C20.005,8.177 19.765,7.721 19.165,7.721 ZM12.277,15.162 C12.277,15.738 11.941,16.818 11.629,17.322 C10.813,17.658 8.917,17.994 7.933,17.994 C7.477,17.562 6.829,16.362 6.829,15.786 C7.141,14.130 7.717,10.769 7.717,9.521 C7.717,8.633 7.405,8.033 6.637,8.033 C5.749,8.033 4.885,9.017 4.405,9.785 C4.405,9.785 3.565,17.490 3.565,17.490 C3.037,17.586 2.269,17.658 1.525,17.658 C0.949,17.658 0.396,17.610 -0.012,17.490 C-0.012,17.490 2.005,2.585 2.005,2.585 C2.005,2.585 0.372,2.753 0.372,2.753 C0.372,2.297 0.660,0.977 0.997,0.664 C1.741,0.232 2.941,-0.008 4.045,-0.008 C4.453,-0.008 5.053,0.088 5.485,0.208 C5.485,0.208 5.125,3.665 5.125,3.665 C5.005,4.889 4.693,6.281 4.309,7.553 C4.309,7.553 4.669,7.553 4.669,7.553 C5.341,6.497 6.349,5.585 8.053,5.585 C9.613,5.585 11.173,6.377 11.173,8.897 C11.173,10.265 10.693,13.098 10.429,14.922 C10.429,15.042 10.501,15.282 10.525,15.330 C10.525,15.330 12.277,15.162 12.277,15.162 Z" id="path-1" class="cls-2" fill-rule="evenodd"/>
</svg>
